# xmcd CD database file
#
# Track frame offsets:
#	150
#	17110
#	33042
#	48587
#
# Disc length: 802 seconds
#
# Revision: 0
# Processed by: cddbd v1.5.2PL0 Copyright (c) Steve Scherf et al.
# Submitted via: CDex 1.60beta1
#
DISCID=27032004
DTITLE=The Hong Kong Knife - Cherished Memories
DYEAR=2000
DGENRE=Rock
TTITLE0=Cherished Memories
TTITLE1=(Trailer Of)Break State Survivor
TTITLE2=Selfdestruction Rock
TTITLE3=Cherished Memories(Original Version)
EXTD=YEAR: 2000
EXTT0=
EXTT1=
EXTT2=
EXTT3=
PLAYORDER=
